<svg width="93" height="93" viewBox="0 0 93 93" fill="none" xmlns="http://www.w3.org/2000/svg">
<rect width="93" height="93" fill="black"/>
<path d="M19.611 48.8027L15 53.4112H39.6008L15 77.9987H21.5096L39.6008 59.9173V77.9987H44.2118V48.8027H19.611Z" fill="white"/>
<path d="M19.611 15L15 19.6084H39.6008L15 44.1959H21.5096L39.6008 26.1145V44.1959H44.2118V15H19.611Z" fill="white"/>
<path d="M73.4236 15.1094H48.85V44.3053H53.4609V32.0251H73.4508L78.0617 27.4167V19.7178L73.4236 15.1094ZM53.4338 27.4167V19.7178H73.4236V27.4167H53.4338Z" fill="white"/>
<path d="M64.2018 61.0829L59.5908 65.7185H73.4237V65.6914V65.7185L65.7478 73.3902H53.4338V53.4112H78.0346L73.4237 48.8027H53.4338L48.8229 53.4112V73.3902L53.4338 77.9987H67.6464L73.4237 72.2245V77.9987H78.0346V61.0829H64.2018Z" fill="white"/>
</svg>
