<svg width="64" height="63" viewBox="0 0 64 63" fill="none" xmlns="http://www.w3.org/2000/svg">
<g clip-path="url(#clip0_637_474)">
<path d="M4.61096 33.8027L0 38.4112H24.6008L0 62.9987H6.50959L24.6008 44.9173V62.9987H29.2118V33.8027H4.61096Z" fill="black"/>
<path d="M4.61096 0L0 4.60845H24.6008L0 29.1959H6.50959L24.6008 11.1145V29.1959H29.2118V0H4.61096Z" fill="black"/>
<path d="M58.4236 0.109375H33.85V29.3053H38.4609V17.0251H58.4508L63.0617 12.4167V4.71783L58.4236 0.109375ZM38.4338 12.4167V4.71783H58.4236V12.4167H38.4338Z" fill="black"/>
<path d="M49.2018 46.0829L44.5908 50.7185H58.4237L50.7478 58.3902H38.4338V38.4112H63.0346L58.4237 33.8027H38.4338L33.8229 38.4112V58.3902L38.4338 62.9987H52.6464L58.4237 57.2245V62.9987H63.0346V46.0829H49.2018Z" fill="black"/>
</g>
<defs>
<clipPath id="clip0_637_474">
<rect width="64" height="63" fill="white"/>
</clipPath>
</defs>
</svg>
