<svg width="53" height="53" viewBox="0 0 53 53" fill="none" xmlns="http://www.w3.org/2000/svg">
<path d="M52.9984 51.9838C52.9417 52.5559 52.4632 52.9941 51.8881 53H1.12886C0.829307 53.0004 0.541955 52.8815 0.330211 52.6698C0.118467 52.4576 -0.000418335 52.1703 1.10943e-06 51.8707V1.12926C-0.00041898 0.829718 0.118478 0.542369 0.330211 0.330208C0.541955 0.118466 0.829307 -0.000418334 1.12886 1.10612e-06H51.8881C52.5048 0.00924363 52.9993 0.512535 52.9984 1.12926V51.8707C53.0005 51.9081 53.0005 51.9459 52.9984 51.9838ZM50.7588 50.7415V2.2585H2.25813V50.7415H50.7588ZM34.3467 22.3217C34.3303 22.8145 34.0144 23.2472 33.5493 23.4135C33.0842 23.5795 32.5646 23.4451 32.2389 23.0745L27.7033 18.1621V37.8866H27.7029C27.705 37.9244 27.705 37.9622 27.7029 37.9996C27.6882 38.3189 27.5471 38.6188 27.3105 38.8339C27.074 39.049 26.7614 39.1612 26.4422 39.1465C26.1224 39.1313 25.8221 38.9902 25.6065 38.7541C25.3914 38.5176 25.2789 38.2058 25.294 37.8866V18.1621L20.7769 23.0745C20.5626 23.3136 20.2618 23.4572 19.9409 23.474C19.6199 23.4908 19.3052 23.3791 19.0674 23.1636C18.8292 22.9481 18.6868 22.6464 18.6725 22.3259C18.6578 22.0053 18.7717 21.6923 18.9893 21.4558L25.6141 14.2472V14.2476C25.8423 13.9947 26.167 13.8502 26.5082 13.8502C26.8489 13.8502 27.1736 13.9947 27.4022 14.2476L34.027 21.4562V21.4558C34.2446 21.6903 34.3597 22.002 34.3467 22.3217Z" fill="white"/>
</svg>
