<svg width="53" height="34" viewBox="0 0 53 34" fill="none" xmlns="http://www.w3.org/2000/svg">
<path d="M0 30.8633C0 30.0349 0.671573 29.3633 1.5 29.3633H51.0455C51.8739 29.3633 52.5455 30.0349 52.5455 30.8633V32.4996C52.5455 33.3281 51.8739 33.9996 51.0455 33.9996H1.5C0.671575 33.9996 0 33.3281 0 32.4996V30.8633Z" fill="white"/>
<path d="M0 16.9551C0 16.1267 0.671573 15.4551 1.5 15.4551H51.0455C51.8739 15.4551 52.5455 16.1267 52.5455 16.9551V18.5914C52.5455 19.4199 51.8739 20.0914 51.0455 20.0914H1.5C0.671575 20.0914 0 19.4199 0 18.5914V16.9551Z" fill="white"/>
<path d="M0 1.5C0 0.671573 0.671573 0 1.5 0H51.0455C51.8739 0 52.5455 0.671573 52.5455 1.5V3.13636C52.5455 3.96479 51.8739 4.63636 51.0455 4.63636H1.5C0.671575 4.63636 0 3.96479 0 3.13636V1.5Z" fill="white"/>
</svg>
