<svg width="29" height="29" viewBox="0 0 29 29" fill="none" xmlns="http://www.w3.org/2000/svg">
<path d="M1.06068 1.06066C1.64646 0.474874 2.59621 0.474874 3.182 1.06066L27.2236 25.1023C27.8094 25.6881 27.8094 26.6378 27.2236 27.2236V27.2236C26.6378 27.8094 25.6881 27.8094 25.1023 27.2236L1.06068 3.18198C0.474891 2.59619 0.474891 1.64645 1.06068 1.06066V1.06066Z" fill="white"/>
<path d="M27.2236 1.06043C27.8094 1.64622 27.8094 2.59597 27.2236 3.18175L3.18201 27.2234C2.59622 27.8092 1.64648 27.8092 1.06069 27.2234V27.2234C0.474904 26.6376 0.474904 25.6879 1.06069 25.1021L25.1023 1.06043C25.6881 0.474647 26.6379 0.474647 27.2236 1.06043V1.06043Z" fill="white"/>
</svg>
