<svg width="57" height="56" viewBox="0 0 57 56" fill="none" xmlns="http://www.w3.org/2000/svg">
<path d="M4.0986 30.0479L0 34.1442H21.8672L0 55.9996H5.78626L21.8672 39.9274V55.9996H25.9658V30.0479H4.0986Z" fill="white"/>
<path d="M4.0986 0L0 4.09637H21.8672L0 25.9517H5.78626L21.8672 9.87949V25.9517H25.9658V0H4.0986Z" fill="white"/>
<path d="M51.9317 0.0966797H30.0886V26.0484H34.1872V15.1328H51.9558L56.0544 11.0364V4.19306L51.9317 0.0966797ZM34.1631 11.0364V4.19306H51.9317V11.0364H34.1631Z" fill="white"/>
<path d="M43.7346 40.9635L39.636 45.084H51.9318V45.0599V45.084L45.1088 51.9032H34.1632V34.1442H56.0304L51.9318 30.0479H34.1632L30.0646 34.1442V51.9032L34.1632 55.9996H46.7965L51.9318 50.8671V55.9996H56.0304V40.9635H43.7346Z" fill="white"/>
</svg>
