<svg width="23" height="14" viewBox="0 0 23 14" fill="none" xmlns="http://www.w3.org/2000/svg">
<path fill-rule="evenodd" clip-rule="evenodd" d="M22.4729 0.948C22.632 0.402 22.4729 0 21.711 0H19.1954C18.5553 0 18.2601 0.347 18.1 0.73C18.1 0.73 16.8207 3.926 15.0085 6.002C14.422 6.604 14.1555 6.795 13.8355 6.795C13.6754 6.795 13.4349 6.604 13.4349 6.057V0.948C13.4349 0.292 13.2585 0 12.7257 0H8.76971C8.37008 0 8.12954 0.304 8.12954 0.593C8.12954 1.214 9.03613 1.358 9.12908 3.106V6.904C9.12908 7.737 8.98246 7.888 8.66237 7.888C7.80946 7.888 5.73467 4.677 4.50321 1.003C4.26458 0.288 4.02308 0 3.38004 0H0.8625C0.14375 0 0 0.347 0 0.73C0 1.412 0.852917 4.8 3.97229 9.281C6.05188 12.341 8.97958 14 11.6466 14C13.2461 14 13.4435 13.632 13.4435 12.997V10.684C13.4435 9.947 13.5949 9.8 14.1019 9.8C14.4756 9.8 15.1148 9.992 16.6079 11.467C18.3137 13.216 18.5945 14 19.5548 14H22.0704C22.7892 14 23.1495 13.632 22.9425 12.904C22.7144 12.18 21.8998 11.129 20.8198 9.882C20.2333 9.172 19.3535 8.407 19.0862 8.024C18.7134 7.533 18.8197 7.314 19.0862 6.877C19.0862 6.877 22.1528 2.451 22.472 0.948H22.4729Z" fill="white"/>
</svg>
