<svg width="111" height="56" viewBox="0 0 111 56" fill="none" xmlns="http://www.w3.org/2000/svg">
<g clip-path="url(#clip0_454_1195)">
<path d="M4.05894 30.0479L0 34.1434H21.6556L0 55.9941H5.73026L21.6556 39.9493L21.6556 55.9941H25.7146L25.7146 30.0479L4.05894 30.0479Z" fill="white"/>
<path d="M4.05894 0.00585938L0 4.10136L21.6556 4.10136L0 25.9521H5.73026L21.6556 9.90734L21.6556 25.9521H25.7146L25.7146 0.00585938L4.05894 0.00585938Z" fill="white"/>
<path d="M51.4531 0.00585938L29.7736 0.00585938L29.7736 25.9521H33.8564L33.8564 15.0388L51.4531 15.0388L55.512 10.9433V4.10136L51.4531 0.00585938ZM33.8564 10.9433V4.10136L51.4531 4.10136V10.9433L33.8564 10.9433Z" fill="white"/>
<path d="M83.3276 4.10136L79.2686 0.00585938L57.5414 0.00585938L57.5414 25.9521H61.6003L61.6003 15.0388L79.197 15.0388V25.9521H83.3276V15.0388L81.2981 12.991L83.3276 10.9433V4.10136ZM61.6003 10.9433V4.10136L79.197 4.10136V10.9433L61.6003 10.9433Z" fill="white"/>
<path d="M106.941 0.00585938L89.3445 0.00585938L85.2855 4.10136V21.8566L89.3445 25.9521L106.941 25.9521L111 21.8566V4.10136L106.941 0.00585938ZM89.3445 21.8566V4.10136L106.941 4.10136V21.8566L89.3445 21.8566Z" fill="white"/>
<path d="M79.1732 30.0479V34.1434L70.3868 43.033L61.6004 34.1434V30.0479H57.5176V35.8538L68.3573 46.7671V55.9941H72.4163V46.7671L83.256 35.8538V30.0479H79.1732Z" fill="white"/>
<path d="M98.1309 43.033L85.2855 30.0479V55.9941H89.3445V39.9493L98.1309 48.8149L106.941 39.9493V55.9941H111V30.0479L98.1309 43.033Z" fill="white"/>
<path d="M43.3352 40.9853L39.2524 45.0808H51.4292H51.4531H51.4292L44.6722 51.8986H33.8325V34.1434L55.4881 34.1434L51.4292 30.0479L33.8325 30.0479L29.7736 34.1434L29.7736 51.8986L33.8325 55.9941H46.3436L51.4292 50.8867V55.9941H55.4881V40.9853H43.3352Z" fill="white"/>
</g>
<defs>
<clipPath id="clip0_454_1195">
<rect width="111" height="56" fill="white"/>
</clipPath>
</defs>
</svg>
